<mxfile host="app.diagrams.net" modified="2023-06-16T01:52:51.346Z" agent="Mozilla/5.0 (Macintosh; Intel Mac OS X 10_15_7) AppleWebKit/537.36 (KHTML, like Gecko) Chrome/114.0.0.0 Safari/537.36" etag="jqqPDwG7LnA8wWG9AucR" version="21.3.7" type="github">
  <diagram name="第 1 页" id="wx_f-Ke4D_SpyEb3p4qO">
    <mxGraphModel dx="855" dy="432" grid="1" gridSize="10" guides="1" tooltips="1" connect="1" arrows="1" fold="1" page="1" pageScale="1" pageWidth="827" pageHeight="1169" math="0" shadow="0">
      <root>
        <mxCell id="0" />
        <mxCell id="1" parent="0" />
        <mxCell id="fwt8ZV-8gI762RSatj38-9" value="" style="shape=parallelogram;perimeter=parallelogramPerimeter;whiteSpace=wrap;html=1;fixedSize=1;size=215;rotation=-90;flipV=0;fillColor=#ffe6cc;strokeColor=#d79b00;sketch=1;curveFitting=1;jiggle=2;" vertex="1" parent="1">
          <mxGeometry x="235" y="295" width="430" height="220" as="geometry" />
        </mxCell>
        <mxCell id="fwt8ZV-8gI762RSatj38-5" value="" style="shape=parallelogram;perimeter=parallelogramPerimeter;whiteSpace=wrap;html=1;fixedSize=1;size=215;rotation=-90;flipV=1;fillColor=#d5e8d4;strokeColor=#82b366;sketch=1;curveFitting=1;jiggle=2;" vertex="1" parent="1">
          <mxGeometry x="235" y="295" width="430" height="220" as="geometry" />
        </mxCell>
        <mxCell id="fwt8ZV-8gI762RSatj38-6" value="&lt;font style=&quot;font-size: 16px;&quot;&gt;Partition A2&lt;/font&gt;" style="text;html=1;strokeColor=none;fillColor=none;align=center;verticalAlign=middle;whiteSpace=wrap;rounded=0;fontFamily=Garamond;fontSize=15;fontStyle=1;opacity=50;" vertex="1" parent="1">
          <mxGeometry x="370" y="410" width="100" height="40" as="geometry" />
        </mxCell>
        <mxCell id="-72EZeiRNGU3VB2l-M4g-7" value="" style="group" parent="1" vertex="1" connectable="0">
          <mxGeometry x="280" y="410" width="60" height="210" as="geometry" />
        </mxCell>
        <mxCell id="-72EZeiRNGU3VB2l-M4g-6" value="" style="rounded=0;whiteSpace=wrap;html=1;sketch=1;curveFitting=1;jiggle=2;" parent="-72EZeiRNGU3VB2l-M4g-7" vertex="1">
          <mxGeometry width="60" height="210" as="geometry" />
        </mxCell>
        <mxCell id="-72EZeiRNGU3VB2l-M4g-1" value="V&lt;sub&gt;i&lt;/sub&gt;" style="ellipse;whiteSpace=wrap;html=1;aspect=fixed;fillColor=#dae8fc;strokeColor=#6c8ebf;" parent="-72EZeiRNGU3VB2l-M4g-7" vertex="1">
          <mxGeometry x="10" y="10" width="40" height="40" as="geometry" />
        </mxCell>
        <mxCell id="-72EZeiRNGU3VB2l-M4g-2" value="V&lt;sub&gt;i+1&lt;/sub&gt;" style="ellipse;whiteSpace=wrap;html=1;aspect=fixed;fillColor=#dae8fc;strokeColor=#6c8ebf;" parent="-72EZeiRNGU3VB2l-M4g-7" vertex="1">
          <mxGeometry x="10" y="60" width="40" height="40" as="geometry" />
        </mxCell>
        <mxCell id="-72EZeiRNGU3VB2l-M4g-4" value="V&lt;sub&gt;i+x&lt;/sub&gt;" style="ellipse;whiteSpace=wrap;html=1;aspect=fixed;fillColor=#dae8fc;strokeColor=#6c8ebf;" parent="-72EZeiRNGU3VB2l-M4g-7" vertex="1">
          <mxGeometry x="10" y="160" width="40" height="40" as="geometry" />
        </mxCell>
        <mxCell id="-72EZeiRNGU3VB2l-M4g-5" value="..." style="ellipse;whiteSpace=wrap;html=1;aspect=fixed;fillColor=#dae8fc;strokeColor=#6c8ebf;" parent="-72EZeiRNGU3VB2l-M4g-7" vertex="1">
          <mxGeometry x="10" y="110" width="40" height="40" as="geometry" />
        </mxCell>
        <mxCell id="-72EZeiRNGU3VB2l-M4g-14" style="rounded=0;orthogonalLoop=1;jettySize=auto;html=1;exitX=1;exitY=0;exitDx=0;exitDy=0;entryX=0;entryY=0;entryDx=0;entryDy=0;" parent="1" source="-72EZeiRNGU3VB2l-M4g-6" target="-72EZeiRNGU3VB2l-M4g-9" edge="1">
          <mxGeometry relative="1" as="geometry" />
        </mxCell>
        <mxCell id="-72EZeiRNGU3VB2l-M4g-15" style="rounded=0;orthogonalLoop=1;jettySize=auto;html=1;exitX=1;exitY=1;exitDx=0;exitDy=0;entryX=0;entryY=1;entryDx=0;entryDy=0;" parent="1" source="-72EZeiRNGU3VB2l-M4g-6" target="-72EZeiRNGU3VB2l-M4g-9" edge="1">
          <mxGeometry relative="1" as="geometry" />
        </mxCell>
        <mxCell id="-72EZeiRNGU3VB2l-M4g-9" value="" style="rounded=0;whiteSpace=wrap;html=1;sketch=1;curveFitting=1;jiggle=2;" parent="1" vertex="1">
          <mxGeometry x="560" y="410" width="60" height="210" as="geometry" />
        </mxCell>
        <mxCell id="-72EZeiRNGU3VB2l-M4g-10" value="V&lt;sub&gt;i&lt;/sub&gt;" style="ellipse;whiteSpace=wrap;html=1;aspect=fixed;fillColor=#1ba1e2;strokeColor=#006EAF;fontColor=#ffffff;" parent="1" vertex="1">
          <mxGeometry x="570" y="420" width="40" height="40" as="geometry" />
        </mxCell>
        <mxCell id="-72EZeiRNGU3VB2l-M4g-11" value="V&lt;sub&gt;i+1&lt;/sub&gt;" style="ellipse;whiteSpace=wrap;html=1;aspect=fixed;fillColor=#1ba1e2;strokeColor=#006EAF;fontColor=#ffffff;" parent="1" vertex="1">
          <mxGeometry x="570" y="470" width="40" height="40" as="geometry" />
        </mxCell>
        <mxCell id="-72EZeiRNGU3VB2l-M4g-12" value="V&lt;sub&gt;i+x&lt;/sub&gt;" style="ellipse;whiteSpace=wrap;html=1;aspect=fixed;fillColor=#1ba1e2;strokeColor=#006EAF;fontColor=#ffffff;" parent="1" vertex="1">
          <mxGeometry x="570" y="570" width="40" height="40" as="geometry" />
        </mxCell>
        <mxCell id="-72EZeiRNGU3VB2l-M4g-13" value="..." style="ellipse;whiteSpace=wrap;html=1;aspect=fixed;fillColor=#1ba1e2;strokeColor=#006EAF;fontColor=#ffffff;" parent="1" vertex="1">
          <mxGeometry x="570" y="520" width="40" height="40" as="geometry" />
        </mxCell>
        <mxCell id="-72EZeiRNGU3VB2l-M4g-23" value="" style="group" parent="1" vertex="1" connectable="0">
          <mxGeometry x="280" y="190" width="60" height="210" as="geometry" />
        </mxCell>
        <mxCell id="-72EZeiRNGU3VB2l-M4g-18" value="" style="rounded=0;whiteSpace=wrap;html=1;sketch=1;curveFitting=1;jiggle=2;" parent="-72EZeiRNGU3VB2l-M4g-23" vertex="1">
          <mxGeometry width="60" height="210" as="geometry" />
        </mxCell>
        <mxCell id="-72EZeiRNGU3VB2l-M4g-19" value="V&lt;sub&gt;i-x&lt;/sub&gt;" style="ellipse;whiteSpace=wrap;html=1;aspect=fixed;fillColor=#fff2cc;strokeColor=#d6b656;" parent="-72EZeiRNGU3VB2l-M4g-23" vertex="1">
          <mxGeometry x="10" y="10" width="40" height="40" as="geometry" />
        </mxCell>
        <mxCell id="-72EZeiRNGU3VB2l-M4g-20" value="..." style="ellipse;whiteSpace=wrap;html=1;aspect=fixed;fillColor=#fff2cc;strokeColor=#d6b656;" parent="-72EZeiRNGU3VB2l-M4g-23" vertex="1">
          <mxGeometry x="10" y="60" width="40" height="40" as="geometry" />
        </mxCell>
        <mxCell id="-72EZeiRNGU3VB2l-M4g-21" value="V&lt;sub&gt;i-1&lt;/sub&gt;" style="ellipse;whiteSpace=wrap;html=1;aspect=fixed;fillColor=#fff2cc;strokeColor=#d6b656;" parent="-72EZeiRNGU3VB2l-M4g-23" vertex="1">
          <mxGeometry x="10" y="160" width="40" height="40" as="geometry" />
        </mxCell>
        <mxCell id="-72EZeiRNGU3VB2l-M4g-22" value="V&lt;sub style=&quot;border-color: var(--border-color);&quot;&gt;i-2&lt;/sub&gt;" style="ellipse;whiteSpace=wrap;html=1;aspect=fixed;fillColor=#fff2cc;strokeColor=#d6b656;" parent="-72EZeiRNGU3VB2l-M4g-23" vertex="1">
          <mxGeometry x="10" y="110" width="40" height="40" as="geometry" />
        </mxCell>
        <mxCell id="-72EZeiRNGU3VB2l-M4g-26" value="" style="rounded=0;whiteSpace=wrap;html=1;sketch=1;curveFitting=1;jiggle=2;" parent="1" vertex="1">
          <mxGeometry x="560" y="190" width="60" height="210" as="geometry" />
        </mxCell>
        <mxCell id="-72EZeiRNGU3VB2l-M4g-27" value="V&lt;sub&gt;i-x&lt;/sub&gt;" style="ellipse;whiteSpace=wrap;html=1;aspect=fixed;fillColor=#ffcc99;strokeColor=#36393d;" parent="1" vertex="1">
          <mxGeometry x="570" y="200" width="40" height="40" as="geometry" />
        </mxCell>
        <mxCell id="-72EZeiRNGU3VB2l-M4g-28" value="..." style="ellipse;whiteSpace=wrap;html=1;aspect=fixed;fillColor=#ffcc99;strokeColor=#36393d;" parent="1" vertex="1">
          <mxGeometry x="570" y="250" width="40" height="40" as="geometry" />
        </mxCell>
        <mxCell id="-72EZeiRNGU3VB2l-M4g-29" value="V&lt;sub&gt;i-1&lt;/sub&gt;" style="ellipse;whiteSpace=wrap;html=1;aspect=fixed;fillColor=#ffcc99;strokeColor=#36393d;" parent="1" vertex="1">
          <mxGeometry x="570" y="350" width="40" height="40" as="geometry" />
        </mxCell>
        <mxCell id="-72EZeiRNGU3VB2l-M4g-30" value="V&lt;sub style=&quot;border-color: var(--border-color);&quot;&gt;i-2&lt;/sub&gt;" style="ellipse;whiteSpace=wrap;html=1;aspect=fixed;fillColor=#ffcc99;strokeColor=#36393d;" parent="1" vertex="1">
          <mxGeometry x="570" y="300" width="40" height="40" as="geometry" />
        </mxCell>
        <mxCell id="fwt8ZV-8gI762RSatj38-3" style="rounded=0;orthogonalLoop=1;jettySize=auto;html=1;exitX=0;exitY=1;exitDx=0;exitDy=0;entryX=0;entryY=1;entryDx=0;entryDy=0;" edge="1" parent="1" source="-72EZeiRNGU3VB2l-M4g-43" target="-72EZeiRNGU3VB2l-M4g-26">
          <mxGeometry relative="1" as="geometry" />
        </mxCell>
        <mxCell id="-72EZeiRNGU3VB2l-M4g-43" value="&lt;font face=&quot;Garamond&quot; size=&quot;1&quot;&gt;&lt;b style=&quot;font-size: 15px;&quot;&gt;Partition A1&lt;/b&gt;&lt;/font&gt;" style="rounded=0;whiteSpace=wrap;html=1;strokeColor=none;fillColor=#cce5ff;opacity=50;" parent="1" vertex="1">
          <mxGeometry x="340" y="410" width="220" height="210" as="geometry" />
        </mxCell>
        <mxCell id="-72EZeiRNGU3VB2l-M4g-52" value="Phase i" style="text;html=1;strokeColor=none;fillColor=none;align=center;verticalAlign=middle;whiteSpace=wrap;rounded=0;fontFamily=Comic Sans MS;fontStyle=1;fontSize=18;" parent="1" vertex="1">
          <mxGeometry x="280" y="130" width="60" height="30" as="geometry" />
        </mxCell>
        <mxCell id="-72EZeiRNGU3VB2l-M4g-53" value="Phase i+1" style="text;html=1;strokeColor=none;fillColor=none;align=center;verticalAlign=middle;whiteSpace=wrap;rounded=0;fontFamily=Comic Sans MS;fontStyle=1;fontSize=18;" parent="1" vertex="1">
          <mxGeometry x="560" y="130" width="60" height="30" as="geometry" />
        </mxCell>
        <mxCell id="fwt8ZV-8gI762RSatj38-2" style="rounded=0;orthogonalLoop=1;jettySize=auto;html=1;exitX=1;exitY=0;exitDx=0;exitDy=0;entryX=0;entryY=0;entryDx=0;entryDy=0;" edge="1" parent="1" source="-72EZeiRNGU3VB2l-M4g-6" target="-72EZeiRNGU3VB2l-M4g-26">
          <mxGeometry relative="1" as="geometry" />
        </mxCell>
        <mxCell id="fwt8ZV-8gI762RSatj38-7" value="Partition&lt;br&gt;Group A" style="text;html=1;strokeColor=none;fillColor=none;align=center;verticalAlign=middle;whiteSpace=wrap;rounded=0;fontStyle=0;fontFamily=Verdana;fontSize=17;" vertex="1" parent="1">
          <mxGeometry x="170" y="510" width="75" height="30" as="geometry" />
        </mxCell>
        <mxCell id="fwt8ZV-8gI762RSatj38-10" value="Partition&lt;br&gt;Group B" style="text;html=1;strokeColor=none;fillColor=none;align=center;verticalAlign=middle;whiteSpace=wrap;rounded=0;fontStyle=0;fontFamily=Verdana;fontSize=17;" vertex="1" parent="1">
          <mxGeometry x="170" y="290" width="75" height="30" as="geometry" />
        </mxCell>
        <mxCell id="fwt8ZV-8gI762RSatj38-11" value="&lt;font style=&quot;font-size: 16px;&quot;&gt;Partition B2&lt;/font&gt;" style="text;html=1;strokeColor=none;fillColor=none;align=center;verticalAlign=middle;whiteSpace=wrap;rounded=0;fontFamily=Garamond;fontSize=15;fontStyle=1;opacity=50;" vertex="1" parent="1">
          <mxGeometry x="370" y="350" width="100" height="40" as="geometry" />
        </mxCell>
        <mxCell id="fwt8ZV-8gI762RSatj38-8" value="&lt;b style=&quot;&quot;&gt;&lt;font style=&quot;font-size: 15px;&quot; face=&quot;Garamond&quot;&gt;Partition B1&lt;/font&gt;&lt;/b&gt;" style="rounded=0;whiteSpace=wrap;html=1;strokeColor=none;fillColor=#fff2cc;opacity=40;" vertex="1" parent="1">
          <mxGeometry x="340" y="190" width="220" height="210" as="geometry" />
        </mxCell>
      </root>
    </mxGraphModel>
  </diagram>
</mxfile>
